<svg xmlns="http://www.w3.org/2000/svg" width="388.442" height="540.05" viewBox="0 0 388.442 540.05">
  <g id="Grupo_165648" data-name="Grupo 165648" transform="translate(-898.557 -13029.319)">
    <path id="Trazado_79846" data-name="Trazado 79846" d="M0,10.865A130.353,130.353,0,0,1,222.235,147.171" transform="translate(1045.51 13080.673)" fill="#16a5ad"/>
    <path id="Trazado_79847" data-name="Trazado 79847" d="M38.611,24.136C23,83.15-104.314,163.274-96.508,102.732c5.768-44.741-48.738-96.547-78.6-135.118-37.37-48.27,76.1-94.2,135.119-78.594a110.531,110.531,0,0,1,78.6,135.116" transform="translate(1186.578 13445.077)" fill="#eadefc"/>
    <path id="Trazado_83580" data-name="Trazado 83580" d="M22.4,35.957c-76.835,41.826-49.965,148-100.692,54.813s-29.563-202.638,47.272-244.464,180.244-.187,230.972,93S99.239-5.867,22.4,35.957" transform="translate(1004.45 13301.362)" fill="#c1afdb"/>
  </g>
</svg>
